# xmcd CD database file
#
# Track frame offsets:
#	150
#	5654
#	21703
#	40301
#	63699
#	87473
#	103971
#	123994
#	140043
#	157517
#	173491
#	188227
#
# Disc length: 2737 seconds
#
# Revision: 0
# Processed by: cddbd v1.5.1PL2 Copyright (c) Steve Scherf et al.
# Submitted via: CDex 1.51
#
DISCID=a60aaf0c
DTITLE=コビトジャイアンツ - ふわソラ（'ω｀*）
DYEAR=2005
DGENRE=Pop
TTITLE0=小人のお仕事
TTITLE1=いも虫くんのぼうけん
TTITLE2=甘いしずく
TTITLE3=船上レストラン
TTITLE4=usagi to dance (松本さちこ)
TTITLE5=green
TTITLE6=白線ステップ
TTITLE7=太陽の忘れ物
TTITLE8=パズル
TTITLE9=この店に来る度
TTITLE10=ありがとう。
TTITLE11=僕のミーちゃん (二場千鶴)
EXTD=YEAR: 2005
EXTT0=
EXTT1=
EXTT2=
EXTT3=
EXTT4=
EXTT5=
EXTT6=
EXTT7=
EXTT8=
EXTT9=
EXTT10=
EXTT11=
PLAYORDER=
